<svg xmlns="http://www.w3.org/2000/svg" width="4500" height="300" viewBox="0 0 4500 300">
  <defs>
    <style>
      .cls-1 {
        fill-rule: evenodd;
      }
    </style>
  </defs>
  <path class="cls-1" d="M1,108c148,0,131,132,243,172S504,136,604,144s148,96,232,108S952,76,1060,80s-12,168,108,168,208-124,428-124,176,124,356,128,80-200,184-200-12,196,108,208,112-104,212-96,136,104,272,100,124-112,200-112,44-64,124-60-20,148,56,152,136-112,260-116,148,88,284,104,456-104,548-108,797.05-88.8,301,175C4437.33,332.859-24,332-24,332S-147,108,1,108Z"/>
</svg>
